<svg width="45" height="44" viewBox="0 0 45 44" fill="none" xmlns="http://www.w3.org/2000/svg">
<path d="M11.5 3.66663L6 11V36.6666C6 37.6391 6.38631 38.5717 7.07394 39.2594C7.76158 39.947 8.69421 40.3333 9.66667 40.3333H35.3333C36.3058 40.3333 37.2384 39.947 37.9261 39.2594C38.6137 38.5717 39 37.6391 39 36.6666V11L33.5 3.66663H11.5Z" stroke="black" stroke-width="2" stroke-linecap="round" stroke-linejoin="round"/>
<path d="M29.8337 18.3334C29.8337 20.2783 29.061 22.1436 27.6858 23.5188C26.3105 24.8941 24.4452 25.6667 22.5003 25.6667C20.5554 25.6667 18.6901 24.8941 17.3149 23.5188C15.9396 22.1436 15.167 20.2783 15.167 18.3334" stroke="black" stroke-width="2" stroke-linecap="round" stroke-linejoin="round"/>
<path d="M6 11H39" stroke="black" stroke-width="2" stroke-linecap="round" stroke-linejoin="round"/>
</svg>
