<svg width="45" height="44" viewBox="0 0 45 44" fill="none" xmlns="http://www.w3.org/2000/svg">
<path d="M26.1663 3.66663H11.4997C10.5272 3.66663 9.59458 4.05293 8.90695 4.74057C8.21932 5.4282 7.83301 6.36083 7.83301 7.33329V36.6666C7.83301 37.6391 8.21932 38.5717 8.90695 39.2594C9.59458 39.947 10.5272 40.3333 11.4997 40.3333H33.4997C34.4721 40.3333 35.4048 39.947 36.0924 39.2594C36.78 38.5717 37.1663 37.6391 37.1663 36.6666V14.6666L26.1663 3.66663Z" stroke="black" stroke-width="2" stroke-linecap="round" stroke-linejoin="round"/>
<path d="M29.8337 31.1666H15.167" stroke="black" stroke-width="2" stroke-linecap="round" stroke-linejoin="round"/>
<path d="M29.8337 23.8334H15.167" stroke="black" stroke-width="2" stroke-linecap="round" stroke-linejoin="round"/>
<path d="M18.8337 16.5H17.0003H15.167" stroke="black" stroke-width="2" stroke-linecap="round" stroke-linejoin="round"/>
<path d="M26.167 3.66663V14.6666H37.167" stroke="black" stroke-width="2" stroke-linecap="round" stroke-linejoin="round"/>
</svg>
