<svg width="80" height="80" viewBox="0 0 80 80" fill="none" xmlns="http://www.w3.org/2000/svg">
<rect width="80" height="80" rx="15" fill="#152A59"/>
<g clip-path="url(#clip0_257_3934)">
<path d="M24.5833 40L24.5833 40.75H25.3333H28.2666H29.0166V40C29.0166 37.126 30.1431 34.3665 32.1544 32.3135C34.1657 30.2606 36.9016 29.0778 39.775 29.019L40.5248 29.0036L40.5095 28.2538L40.4494 25.321L40.434 24.5712L39.6842 24.5866C35.651 24.6692 31.8108 26.3294 28.9876 29.211C26.1645 32.0926 24.5833 35.9659 24.5833 40Z" stroke="white" stroke-width="1.5"/>
<rect x="40.6665" y="40.6667" width="1.33333" height="1.33333" rx="0.666667" fill="white"/>
<path d="M41.3333 46.0833C43.9566 46.0833 46.0833 43.9567 46.0833 41.3333C46.0833 38.71 43.9566 36.5833 41.3333 36.5833C38.7099 36.5833 36.5833 38.71 36.5833 41.3333C36.5833 43.9567 38.7099 46.0833 41.3333 46.0833Z" stroke="white" stroke-width="1.5"/>
<path d="M44.2498 50.1989C39.3535 51.8097 34.0785 49.1462 32.4677 44.2499C30.857 39.3536 33.5204 34.0785 38.4168 32.4678C43.3131 30.857 48.5881 33.5205 50.1989 38.4168C51.8096 43.3131 49.1462 48.5882 44.2498 50.1989Z" stroke="white" stroke-width="1.5" stroke-linecap="round" stroke-linejoin="round" stroke-dasharray="5 5"/>
</g>
<defs>
<clipPath id="clip0_257_3934">
<rect width="32" height="32" fill="white" transform="translate(24 24)"/>
</clipPath>
</defs>
</svg>
