<svg width="80" height="80" viewBox="0 0 80 80" fill="none" xmlns="http://www.w3.org/2000/svg">
<rect width="80" height="80" rx="15" fill="#152A59"/>
<circle cx="40.0001" cy="40" r="13.3333" stroke="white" stroke-width="1.5"/>
<path d="M31.2296 43.1922C30.7259 41.8081 30.5568 40.3245 30.7363 38.8626C30.9158 37.4006 31.4388 36.0019 32.2624 34.7809C33.086 33.5598 34.187 32.551 35.4752 31.8369C36.7634 31.1228 38.2024 30.7238 39.6744 30.6724C41.1464 30.6209 42.6096 30.9187 43.9445 31.5411C45.2794 32.1636 46.4481 33.0932 47.3549 34.2538C48.2617 35.4145 48.8809 36.7733 49.1619 38.2191C49.443 39.665 49.3778 41.1568 48.9719 42.5726" stroke="white" stroke-width="1.5" stroke-linecap="round" stroke-linejoin="round" stroke-dasharray="5 5"/>
<path d="M43.3744 37.388L41.3773 38.594C40.67 39.0098 39.9211 39.3841 39.2139 39.7168C39.0059 39.8 38.7562 39.9247 38.5066 40.0495C37.6329 40.5069 37.1752 41.4634 37.3833 42.4198C37.5497 43.1684 38.1737 43.7922 38.9226 43.9585C39.089 44.0001 39.2555 44.0001 39.4219 44.0001C40.2124 44.0001 40.9197 43.5426 41.2941 42.8357C41.3773 42.6277 41.5022 42.3782 41.627 42.1287C42.0014 41.4217 42.3343 40.6732 42.7503 39.9663L43.9569 37.9702C44.0401 37.8039 43.9985 37.6375 43.8736 37.4712C43.7488 37.3048 43.5408 37.3048 43.3744 37.388ZM42.043 39.5088C41.5853 40.2574 41.2109 41.0059 40.8781 41.7544C40.7949 42.004 40.67 42.2119 40.5452 42.4614C40.2956 43.002 39.7131 43.2515 39.1307 43.1268C38.673 43.0436 38.2985 42.6693 38.2154 42.2119C38.0906 41.6297 38.3402 41.0475 38.881 40.798C39.0891 40.6733 39.3387 40.5901 39.5883 40.4653C40.3372 40.091 41.1277 39.7168 41.835 39.3009L42.3759 38.9682L42.043 39.5088Z" fill="white"/>
</svg>
